<?xml version="1.0" encoding="UTF-8"?>
<svg xmlns="http://www.w3.org/2000/svg" viewBox="0 0 74 74" width="512" height="512"><g id="Numbers"><text transform="translate(31.995 -266.544)" font-size="18" fill="red" font-family="ArialMT, Arial">2<tspan x="-5.005" y="124">12</tspan><tspan x="-5.005" y="248">22</tspan><tspan x="-5.005" y="372">32</tspan><tspan x="-5.005" y="496">42</tspan><tspan x="-5.005" y="620">52</tspan><tspan x="-5.005" y="744">62</tspan><tspan x="-5.005" y="868">72</tspan><tspan x="-5.005" y="992">82</tspan><tspan x="-5.005" y="1116">92</tspan><tspan x="-10.011" y="1240">102</tspan><tspan x="-9.343" y="1364" letter-spacing="-0.074em">1</tspan><tspan x="-0.668" y="1364">12</tspan><tspan x="-10.011" y="1488">122</tspan><tspan x="-10.011" y="1612">132</tspan><tspan x="-10.011" y="1736">142</tspan><tspan x="-10.011" y="1860">152</tspan><tspan x="-10.011" y="1984">162</tspan><tspan x="-10.011" y="2108">172</tspan><tspan x="-10.011" y="2232">182</tspan><tspan x="-10.011" y="2356">192</tspan><tspan x="-10.011" y="2480">202</tspan><tspan x="-10.011" y="2604">212</tspan><tspan x="-10.011" y="2728">222</tspan><tspan x="-10.011" y="2852">232</tspan><tspan x="-10.011" y="2976">242</tspan><tspan x="-10.011" y="3100">252</tspan><tspan x="-10.011" y="3224">262</tspan><tspan x="-10.011" y="3348">272</tspan><tspan x="-10.011" y="3472">282</tspan><tspan x="-10.011" y="3596">292</tspan></text></g><g id="Icons"><path d="M41.274,72H32.726a2,2,0,0,1-1.97-1.654l-.817-4.653a29.239,29.239,0,0,1-8.227-3.417l-3.876,2.718a2,2,0,0,1-2.563-.223L9.229,58.727a2,2,0,0,1-.223-2.563l2.718-3.876a29.239,29.239,0,0,1-3.417-8.227l-4.653-.817A2,2,0,0,1,2,41.274V32.726a2,2,0,0,1,1.654-1.97l4.653-.817a29.239,29.239,0,0,1,3.417-8.227L9.006,17.836a2,2,0,0,1,.223-2.563l6.044-6.044a2,2,0,0,1,2.563-.223l3.876,2.718a29.239,29.239,0,0,1,8.227-3.417l.817-4.653A2,2,0,0,1,32.726,2h8.548a2,2,0,0,1,1.97,1.654l.817,4.653a29.239,29.239,0,0,1,8.227,3.417l3.876-2.718a2,2,0,0,1,2.563.223l6.044,6.044a2,2,0,0,1,.223,2.563l-2.718,3.876a29.239,29.239,0,0,1,3.417,8.227l4.653.817A2,2,0,0,1,72,32.726v8.548a2,2,0,0,1-1.654,1.97l-4.653.817a29.239,29.239,0,0,1-3.417,8.227l2.718,3.876a2,2,0,0,1-.223,2.563l-6.044,6.044a2,2,0,0,1-2.563.223l-3.876-2.718a29.239,29.239,0,0,1-8.227,3.417l-.817,4.653A2,2,0,0,1,41.274,72Zm-9.425-7,.877,5h8.548l.893-5.084A.98.98,0,0,1,42.93,63.9a27.29,27.29,0,0,0,8.931-3.718,1,1,0,0,1,1.32.214,1.113,1.113,0,0,1,.081.117l4.05,2.84,6.045-6.044L60.444,53.16l-.013-.011a.968.968,0,0,1-.246-1.288A27.29,27.29,0,0,0,63.9,42.93a1,1,0,0,1,1.085-.78H65l5-.877V32.726l-5.084-.893A.966.966,0,0,1,63.9,31.07a27.29,27.29,0,0,0-3.718-8.931,1,1,0,0,1,.214-1.32,1.113,1.113,0,0,1,.117-.081l2.84-4.05-6.044-6.045L53.16,13.556l-.011.013a.97.97,0,0,1-1.288.246A27.29,27.29,0,0,0,42.93,10.1a1,1,0,0,1-.78-1.085V9l-.877-5H32.726l-.893,5.084A.98.98,0,0,1,31.07,10.1a27.29,27.29,0,0,0-8.931,3.718,1,1,0,0,1-1.32-.214,1.113,1.113,0,0,1-.081-.117l-4.05-2.84-6.045,6.044,2.913,4.152.013.011a.968.968,0,0,1,.246,1.288A27.29,27.29,0,0,0,10.1,31.07a1,1,0,0,1-1.085.78H9l-5,.877v8.548l5.084.893a.973.973,0,0,1,1.013.763,27.29,27.29,0,0,0,3.718,8.931,1,1,0,0,1-.214,1.32,1.113,1.113,0,0,1-.117.081l-2.84,4.05,6.044,6.045,4.152-2.913.011-.013a.966.966,0,0,1,1.288-.246A27.29,27.29,0,0,0,31.07,63.9a1,1,0,0,1,.78,1.085Z"/><path d="M46.361,56.46a1,1,0,0,1-.452-1.893A17.84,17.84,0,0,0,48.323,53.1,1,1,0,1,1,49.5,54.72a19.881,19.881,0,0,1-2.686,1.633A1.008,1.008,0,0,1,46.361,56.46Z"/><path d="M37,58.69A21.69,21.69,0,1,1,58.69,37c0,.612-.024,1.172-.074,1.712a1,1,0,1,1-1.991-.184c.043-.478.065-.978.065-1.528A19.69,19.69,0,1,0,37,56.69c.55,0,1.05-.022,1.528-.065a1,1,0,1,1,.184,1.991C38.172,58.666,37.612,58.69,37,58.69Z"/><path d="M53.869,49.97a1,1,0,0,1-.806-1.59,17.713,17.713,0,0,0,1.5-2.471,1,1,0,1,1,1.786.9,19.855,19.855,0,0,1-1.676,2.75A1,1,0,0,1,53.869,49.97Z"/><path d="M43.086,43.292a1,1,0,0,1-.707-1.707L46.965,37l-4.586-4.585A1,1,0,1,1,43.793,31l5.293,5.292a1,1,0,0,1,0,1.414L43.793,43A1,1,0,0,1,43.086,43.292Z"/><path d="M30.914,43.292A1,1,0,0,1,30.207,43l-5.293-5.292a1,1,0,0,1,0-1.414L30.207,31a1,1,0,1,1,1.414,1.414L27.035,37l4.586,4.585a1,1,0,0,1-.707,1.707Z"/><path d="M33.95,48.461a.98.98,0,0,1-.281-.041,1,1,0,0,1-.68-1.239l6.1-20.921a1,1,0,0,1,1.92.559l-6.1,20.921A1,1,0,0,1,33.95,48.461Z"/></g></svg>
